<svg width="354" height="332" viewBox="0 0 354 332" fill="none" xmlns="http://www.w3.org/2000/svg">
<rect x="10" y="229" width="78" height="96" fill="#BFC8FF"/>
<path d="M136 175H213V325H136V175Z" fill="#BFC8FF"/>
<path d="M265 121H343V325H265V121Z" fill="#BFC8FF"/>
<rect x="145" y="125.563" width="9" height="48" transform="rotate(-10 145 125.563)" fill="#BFC8FF"/>
<path d="M99.8567 137.391L146.307 125.292L148.575 134.001L102.125 146.1L99.8567 137.391Z" fill="#BFC8FF"/>
<path d="M118.09 65.6201L139.331 98.3283L131.783 103.23L110.542 70.5219L118.09 65.6201Z" fill="#BFC8FF"/>
<path d="M115.33 70.8101L86.8073 97.408L80.6693 90.8258L109.192 64.2279L115.33 70.8101Z" fill="#BFC8FF"/>
<path d="M89.5001 92.53L82.0601 130.805L73.2255 129.088L80.6655 90.8127L89.5001 92.53Z" fill="#BFC8FF"/>
<path d="M133 91.72L165.708 70.479L170.61 78.0271L137.902 99.268L133 91.72Z" fill="#BFC8FF"/>
<rect x="97" y="141.261" width="78" height="9" transform="rotate(-81 97 141.261)" fill="#BFC8FF"/>
<rect x="81.49" y="182.2" width="9" height="48" transform="rotate(34 81.49 182.2)" fill="#BFC8FF"/>
<rect x="97.72" y="139.248" width="9" height="48" transform="rotate(21 97.72 139.248)" fill="#BFC8FF"/>
<path d="M136 43C136 52.9411 127.941 61 118 61C108.059 61 100 52.9411 100 43C100 33.0589 108.059 25 118 25C127.941 25 136 33.0589 136 43Z" fill="#BFC8FF"/>
<line x1="153.657" y1="123.248" x2="106.495" y2="135.824" stroke="#BFC8FF" stroke-width="0.35"/>
<path d="M188.101 43V41.4659C188.101 41.0303 188.186 40.5852 188.357 40.1307C188.527 39.6761 188.752 39.2476 189.031 38.8452C189.311 38.4427 189.614 38.1065 189.94 37.8366L191.276 38.625C191.01 39.0417 190.793 39.4773 190.622 39.9318C190.456 40.3864 190.374 40.893 190.374 41.4517V43H188.101ZM191.688 43V41.4659C191.688 41.0303 191.773 40.5852 191.943 40.1307C192.114 39.6761 192.339 39.2476 192.618 38.8452C192.897 38.4427 193.2 38.1065 193.527 37.8366L194.862 38.625C194.597 39.0417 194.379 39.4773 194.209 39.9318C194.043 40.3864 193.96 40.893 193.96 41.4517V43H191.688ZM199.756 53.206C199.06 53.206 198.439 53.0852 197.895 52.8438C197.35 52.5975 196.92 52.2353 196.602 51.7571C196.29 51.2741 196.134 50.6728 196.134 49.9531C196.134 49.3471 196.245 48.8381 196.467 48.4261C196.69 48.0142 196.993 47.6828 197.376 47.4318C197.76 47.1809 198.196 46.9915 198.683 46.8636C199.176 46.7358 199.692 46.6458 200.232 46.5938C200.866 46.5275 201.377 46.4659 201.766 46.4091C202.154 46.3475 202.436 46.2576 202.611 46.1392C202.786 46.0208 202.874 45.8456 202.874 45.6136V45.571C202.874 45.1212 202.732 44.7732 202.447 44.527C202.168 44.2808 201.77 44.1577 201.254 44.1577C200.71 44.1577 200.277 44.2784 199.955 44.5199C199.633 44.7566 199.42 45.0549 199.315 45.4148L196.517 45.1875C196.659 44.5246 196.938 43.9517 197.355 43.4688C197.772 42.9811 198.309 42.607 198.967 42.3466C199.63 42.0814 200.397 41.9489 201.268 41.9489C201.875 41.9489 202.455 42.0199 203.009 42.1619C203.567 42.304 204.062 42.5241 204.493 42.8224C204.929 43.1207 205.272 43.5043 205.523 43.973C205.774 44.437 205.899 44.9934 205.899 45.642V53H203.03V51.4872H202.945C202.769 51.8281 202.535 52.1288 202.241 52.3892C201.948 52.6449 201.595 52.8461 201.183 52.9929C200.771 53.1349 200.295 53.206 199.756 53.206ZM200.622 51.1179C201.067 51.1179 201.46 51.0303 201.801 50.8551C202.142 50.6752 202.41 50.4337 202.604 50.1307C202.798 49.8277 202.895 49.4844 202.895 49.1009V47.9432C202.8 48.0047 202.67 48.0616 202.504 48.1136C202.343 48.161 202.161 48.206 201.957 48.2486C201.754 48.2865 201.55 48.322 201.347 48.3551C201.143 48.3835 200.958 48.4096 200.793 48.4332C200.438 48.4853 200.127 48.5682 199.862 48.6818C199.597 48.7955 199.391 48.9493 199.244 49.1435C199.098 49.3329 199.024 49.5696 199.024 49.8537C199.024 50.2656 199.173 50.5805 199.472 50.7983C199.775 51.0114 200.158 51.1179 200.622 51.1179ZM208.246 53V42.0909H211.13V44.0156H211.258C211.485 43.3764 211.864 42.8722 212.394 42.5028C212.924 42.1335 213.559 41.9489 214.298 41.9489C215.046 41.9489 215.683 42.1359 216.208 42.5099C216.734 42.8793 217.084 43.3812 217.259 44.0156H217.373C217.595 43.3906 217.998 42.8911 218.58 42.517C219.167 42.1383 219.861 41.9489 220.661 41.9489C221.679 41.9489 222.505 42.2732 223.14 42.9219C223.779 43.5658 224.099 44.4796 224.099 45.6634V53H221.08V46.2599C221.08 45.6539 220.919 45.1993 220.597 44.8963C220.275 44.5933 219.873 44.4418 219.39 44.4418C218.841 44.4418 218.412 44.617 218.104 44.9673C217.797 45.313 217.643 45.7699 217.643 46.3381V53H214.71V46.196C214.71 45.661 214.556 45.2348 214.248 44.9176C213.945 44.6004 213.545 44.4418 213.048 44.4418C212.711 44.4418 212.408 44.527 212.138 44.6974C211.873 44.8632 211.663 45.0975 211.506 45.4006C211.35 45.6989 211.272 46.0492 211.272 46.4517V53H208.246ZM229.599 53.206C228.903 53.206 228.283 53.0852 227.739 52.8438C227.194 52.5975 226.763 52.2353 226.446 51.7571C226.134 51.2741 225.977 50.6728 225.977 49.9531C225.977 49.3471 226.089 48.8381 226.311 48.4261C226.534 48.0142 226.837 47.6828 227.22 47.4318C227.604 47.1809 228.039 46.9915 228.527 46.8636C229.019 46.7358 229.536 46.6458 230.075 46.5938C230.71 46.5275 231.221 46.4659 231.609 46.4091C231.998 46.3475 232.279 46.2576 232.455 46.1392C232.63 46.0208 232.717 45.8456 232.717 45.6136V45.571C232.717 45.1212 232.575 44.7732 232.291 44.527C232.012 44.2808 231.614 44.1577 231.098 44.1577C230.554 44.1577 230.12 44.2784 229.798 44.5199C229.476 44.7566 229.263 45.0549 229.159 45.4148L226.361 45.1875C226.503 44.5246 226.782 43.9517 227.199 43.4688C227.616 42.9811 228.153 42.607 228.811 42.3466C229.474 42.0814 230.241 41.9489 231.112 41.9489C231.718 41.9489 232.298 42.0199 232.852 42.1619C233.411 42.304 233.906 42.5241 234.337 42.8224C234.772 43.1207 235.116 43.5043 235.366 43.973C235.617 44.437 235.743 44.9934 235.743 45.642V53H232.874V51.4872H232.788C232.613 51.8281 232.379 52.1288 232.085 52.3892C231.792 52.6449 231.439 52.8461 231.027 52.9929C230.615 53.1349 230.139 53.206 229.599 53.206ZM230.466 51.1179C230.911 51.1179 231.304 51.0303 231.645 50.8551C231.986 50.6752 232.253 50.4337 232.447 50.1307C232.642 49.8277 232.739 49.4844 232.739 49.1009V47.9432C232.644 48.0047 232.514 48.0616 232.348 48.1136C232.187 48.161 232.005 48.206 231.801 48.2486C231.598 48.2865 231.394 48.322 231.19 48.3551C230.987 48.3835 230.802 48.4096 230.636 48.4332C230.281 48.4853 229.971 48.5682 229.706 48.6818C229.441 48.7955 229.235 48.9493 229.088 49.1435C228.941 49.3329 228.868 49.5696 228.868 49.8537C228.868 50.2656 229.017 50.5805 229.315 50.7983C229.618 51.0114 230.002 51.1179 230.466 51.1179ZM241.116 46.6932V53H238.09V42.0909H240.974V44.0156H241.102C241.343 43.3812 241.748 42.8793 242.316 42.5099C242.884 42.1359 243.573 41.9489 244.383 41.9489C245.14 41.9489 245.801 42.1146 246.364 42.446C246.928 42.7775 247.366 43.2509 247.678 43.8665C247.991 44.4773 248.147 45.2064 248.147 46.054V53H245.121V46.5938C245.126 45.9261 244.956 45.4053 244.61 45.0312C244.264 44.6525 243.789 44.4631 243.183 44.4631C242.775 44.4631 242.415 44.5507 242.103 44.7259C241.795 44.901 241.554 45.1567 241.379 45.4929C241.208 45.8243 241.121 46.2244 241.116 46.6932ZM253.067 38.4545V39.9886C253.067 40.4242 252.982 40.8693 252.811 41.3239C252.646 41.7737 252.423 42.1998 252.144 42.6023C251.864 43 251.559 43.3385 251.228 43.6179L249.892 42.8295C250.129 42.4555 250.337 42.0412 250.517 41.5866C250.702 41.1321 250.794 40.6042 250.794 40.0028V38.4545H253.067ZM256.64 38.4545V39.9886C256.64 40.4242 256.554 40.8693 256.384 41.3239C256.218 41.7737 255.996 42.1998 255.716 42.6023C255.437 43 255.129 43.3385 254.793 43.6179L253.458 42.8295C253.699 42.4555 253.91 42.0412 254.09 41.5866C254.275 41.1321 254.367 40.6042 254.367 40.0028V38.4545H256.64Z" fill="#BFC8FF" fill-opacity="0.36"/>
<path d="M188.101 43V41.4659C188.101 41.0303 188.186 40.5852 188.357 40.1307C188.527 39.6761 188.752 39.2476 189.031 38.8452C189.311 38.4427 189.614 38.1065 189.94 37.8366L191.276 38.625C191.01 39.0417 190.793 39.4773 190.622 39.9318C190.456 40.3864 190.374 40.893 190.374 41.4517V43H188.101ZM191.688 43V41.4659C191.688 41.0303 191.773 40.5852 191.943 40.1307C192.114 39.6761 192.339 39.2476 192.618 38.8452C192.897 38.4427 193.2 38.1065 193.527 37.8366L194.862 38.625C194.597 39.0417 194.379 39.4773 194.209 39.9318C194.043 40.3864 193.96 40.893 193.96 41.4517V43H191.688ZM199.756 53.206C199.06 53.206 198.439 53.0852 197.895 52.8438C197.35 52.5975 196.92 52.2353 196.602 51.7571C196.29 51.2741 196.134 50.6728 196.134 49.9531C196.134 49.3471 196.245 48.8381 196.467 48.4261C196.69 48.0142 196.993 47.6828 197.376 47.4318C197.76 47.1809 198.196 46.9915 198.683 46.8636C199.176 46.7358 199.692 46.6458 200.232 46.5938C200.866 46.5275 201.377 46.4659 201.766 46.4091C202.154 46.3475 202.436 46.2576 202.611 46.1392C202.786 46.0208 202.874 45.8456 202.874 45.6136V45.571C202.874 45.1212 202.732 44.7732 202.447 44.527C202.168 44.2808 201.77 44.1577 201.254 44.1577C200.71 44.1577 200.277 44.2784 199.955 44.5199C199.633 44.7566 199.42 45.0549 199.315 45.4148L196.517 45.1875C196.659 44.5246 196.938 43.9517 197.355 43.4688C197.772 42.9811 198.309 42.607 198.967 42.3466C199.63 42.0814 200.397 41.9489 201.268 41.9489C201.875 41.9489 202.455 42.0199 203.009 42.1619C203.567 42.304 204.062 42.5241 204.493 42.8224C204.929 43.1207 205.272 43.5043 205.523 43.973C205.774 44.437 205.899 44.9934 205.899 45.642V53H203.03V51.4872H202.945C202.769 51.8281 202.535 52.1288 202.241 52.3892C201.948 52.6449 201.595 52.8461 201.183 52.9929C200.771 53.1349 200.295 53.206 199.756 53.206ZM200.622 51.1179C201.067 51.1179 201.46 51.0303 201.801 50.8551C202.142 50.6752 202.41 50.4337 202.604 50.1307C202.798 49.8277 202.895 49.4844 202.895 49.1009V47.9432C202.8 48.0047 202.67 48.0616 202.504 48.1136C202.343 48.161 202.161 48.206 201.957 48.2486C201.754 48.2865 201.55 48.322 201.347 48.3551C201.143 48.3835 200.958 48.4096 200.793 48.4332C200.438 48.4853 200.127 48.5682 199.862 48.6818C199.597 48.7955 199.391 48.9493 199.244 49.1435C199.098 49.3329 199.024 49.5696 199.024 49.8537C199.024 50.2656 199.173 50.5805 199.472 50.7983C199.775 51.0114 200.158 51.1179 200.622 51.1179ZM208.246 53V42.0909H211.13V44.0156H211.258C211.485 43.3764 211.864 42.8722 212.394 42.5028C212.924 42.1335 213.559 41.9489 214.298 41.9489C215.046 41.9489 215.683 42.1359 216.208 42.5099C216.734 42.8793 217.084 43.3812 217.259 44.0156H217.373C217.595 43.3906 217.998 42.8911 218.58 42.517C219.167 42.1383 219.861 41.9489 220.661 41.9489C221.679 41.9489 222.505 42.2732 223.14 42.9219C223.779 43.5658 224.099 44.4796 224.099 45.6634V53H221.08V46.2599C221.08 45.6539 220.919 45.1993 220.597 44.8963C220.275 44.5933 219.873 44.4418 219.39 44.4418C218.841 44.4418 218.412 44.617 218.104 44.9673C217.797 45.313 217.643 45.7699 217.643 46.3381V53H214.71V46.196C214.71 45.661 214.556 45.2348 214.248 44.9176C213.945 44.6004 213.545 44.4418 213.048 44.4418C212.711 44.4418 212.408 44.527 212.138 44.6974C211.873 44.8632 211.663 45.0975 211.506 45.4006C211.35 45.6989 211.272 46.0492 211.272 46.4517V53H208.246ZM229.599 53.206C228.903 53.206 228.283 53.0852 227.739 52.8438C227.194 52.5975 226.763 52.2353 226.446 51.7571C226.134 51.2741 225.977 50.6728 225.977 49.9531C225.977 49.3471 226.089 48.8381 226.311 48.4261C226.534 48.0142 226.837 47.6828 227.22 47.4318C227.604 47.1809 228.039 46.9915 228.527 46.8636C229.019 46.7358 229.536 46.6458 230.075 46.5938C230.71 46.5275 231.221 46.4659 231.609 46.4091C231.998 46.3475 232.279 46.2576 232.455 46.1392C232.63 46.0208 232.717 45.8456 232.717 45.6136V45.571C232.717 45.1212 232.575 44.7732 232.291 44.527C232.012 44.2808 231.614 44.1577 231.098 44.1577C230.554 44.1577 230.12 44.2784 229.798 44.5199C229.476 44.7566 229.263 45.0549 229.159 45.4148L226.361 45.1875C226.503 44.5246 226.782 43.9517 227.199 43.4688C227.616 42.9811 228.153 42.607 228.811 42.3466C229.474 42.0814 230.241 41.9489 231.112 41.9489C231.718 41.9489 232.298 42.0199 232.852 42.1619C233.411 42.304 233.906 42.5241 234.337 42.8224C234.772 43.1207 235.116 43.5043 235.366 43.973C235.617 44.437 235.743 44.9934 235.743 45.642V53H232.874V51.4872H232.788C232.613 51.8281 232.379 52.1288 232.085 52.3892C231.792 52.6449 231.439 52.8461 231.027 52.9929C230.615 53.1349 230.139 53.206 229.599 53.206ZM230.466 51.1179C230.911 51.1179 231.304 51.0303 231.645 50.8551C231.986 50.6752 232.253 50.4337 232.447 50.1307C232.642 49.8277 232.739 49.4844 232.739 49.1009V47.9432C232.644 48.0047 232.514 48.0616 232.348 48.1136C232.187 48.161 232.005 48.206 231.801 48.2486C231.598 48.2865 231.394 48.322 231.19 48.3551C230.987 48.3835 230.802 48.4096 230.636 48.4332C230.281 48.4853 229.971 48.5682 229.706 48.6818C229.441 48.7955 229.235 48.9493 229.088 49.1435C228.941 49.3329 228.868 49.5696 228.868 49.8537C228.868 50.2656 229.017 50.5805 229.315 50.7983C229.618 51.0114 230.002 51.1179 230.466 51.1179ZM241.116 46.6932V53H238.09V42.0909H240.974V44.0156H241.102C241.343 43.3812 241.748 42.8793 242.316 42.5099C242.884 42.1359 243.573 41.9489 244.383 41.9489C245.14 41.9489 245.801 42.1146 246.364 42.446C246.928 42.7775 247.366 43.2509 247.678 43.8665C247.991 44.4773 248.147 45.2064 248.147 46.054V53H245.121V46.5938C245.126 45.9261 244.956 45.4053 244.61 45.0312C244.264 44.6525 243.789 44.4631 243.183 44.4631C242.775 44.4631 242.415 44.5507 242.103 44.7259C241.795 44.901 241.554 45.1567 241.379 45.4929C241.208 45.8243 241.121 46.2244 241.116 46.6932ZM253.067 38.4545V39.9886C253.067 40.4242 252.982 40.8693 252.811 41.3239C252.646 41.7737 252.423 42.1998 252.144 42.6023C251.864 43 251.559 43.3385 251.228 43.6179L249.892 42.8295C250.129 42.4555 250.337 42.0412 250.517 41.5866C250.702 41.1321 250.794 40.6042 250.794 40.0028V38.4545H253.067ZM256.64 38.4545V39.9886C256.64 40.4242 256.554 40.8693 256.384 41.3239C256.218 41.7737 255.996 42.1998 255.716 42.6023C255.437 43 255.129 43.3385 254.793 43.6179L253.458 42.8295C253.699 42.4555 253.91 42.0412 254.09 41.5866C254.275 41.1321 254.367 40.6042 254.367 40.0028V38.4545H256.64Z" fill="#BFC8FF" fill-opacity="0.36"/>
<path d="M263.578 53V42.0909H266.512V43.9943H266.625C266.824 43.3172 267.158 42.8059 267.627 42.4602C268.096 42.1098 268.635 41.9347 269.246 41.9347C269.398 41.9347 269.561 41.9441 269.736 41.9631C269.911 41.982 270.065 42.008 270.198 42.0412V44.7259C270.056 44.6832 269.859 44.6454 269.608 44.6122C269.357 44.5791 269.128 44.5625 268.919 44.5625C268.474 44.5625 268.077 44.6596 267.726 44.8537C267.381 45.0431 267.106 45.3082 266.902 45.6491C266.703 45.9901 266.604 46.383 266.604 46.8281V53H263.578ZM278.758 48.3551V42.0909H281.783V53H278.879V51.0185H278.765C278.519 51.6577 278.109 52.1714 277.536 52.5597C276.968 52.9479 276.274 53.142 275.455 53.142C274.726 53.142 274.085 52.9763 273.531 52.6449C272.977 52.3134 272.543 51.8423 272.231 51.2315C271.923 50.6207 271.767 49.8892 271.762 49.0369V42.0909H274.788V48.4972C274.792 49.1411 274.965 49.6501 275.306 50.0241C275.647 50.3982 276.104 50.5852 276.677 50.5852C277.041 50.5852 277.382 50.5024 277.7 50.3366C278.017 50.1662 278.272 49.9152 278.467 49.5838C278.665 49.2524 278.763 48.8428 278.758 48.3551ZM287.229 46.6932V53H284.203V42.0909H287.087V44.0156H287.215C287.456 43.3812 287.861 42.8793 288.429 42.5099C288.998 42.1359 289.686 41.9489 290.496 41.9489C291.254 41.9489 291.914 42.1146 292.478 42.446C293.041 42.7775 293.479 43.2509 293.792 43.8665C294.104 44.4773 294.26 45.2064 294.26 46.054V53H291.235V46.5938C291.239 45.9261 291.069 45.4053 290.723 45.0312C290.378 44.6525 289.902 44.4631 289.296 44.4631C288.889 44.4631 288.529 44.5507 288.216 44.7259C287.908 44.901 287.667 45.1567 287.492 45.4929C287.321 45.8243 287.234 46.2244 287.229 46.6932ZM299.67 46.6932V53H296.645V42.0909H299.528V44.0156H299.656C299.898 43.3812 300.303 42.8793 300.871 42.5099C301.439 42.1359 302.128 41.9489 302.938 41.9489C303.695 41.9489 304.356 42.1146 304.919 42.446C305.482 42.7775 305.92 43.2509 306.233 43.8665C306.545 44.4773 306.702 45.2064 306.702 46.054V53H303.676V46.5938C303.681 45.9261 303.51 45.4053 303.165 45.0312C302.819 44.6525 302.343 44.4631 301.737 44.4631C301.33 44.4631 300.97 44.5507 300.658 44.7259C300.35 44.901 300.108 45.1567 299.933 45.4929C299.763 45.8243 299.675 46.2244 299.67 46.6932ZM309.086 53V42.0909H312.112V53H309.086ZM310.606 40.6847C310.156 40.6847 309.77 40.5355 309.449 40.2372C309.131 39.9342 308.973 39.572 308.973 39.1506C308.973 38.7339 309.131 38.3764 309.449 38.0781C309.77 37.7751 310.156 37.6236 310.606 37.6236C311.056 37.6236 311.44 37.7751 311.757 38.0781C312.079 38.3764 312.24 38.7339 312.24 39.1506C312.24 39.572 312.079 39.9342 311.757 40.2372C311.44 40.5355 311.056 40.6847 310.606 40.6847ZM317.561 46.6932V53H314.536V42.0909H317.419V44.0156H317.547C317.788 43.3812 318.193 42.8793 318.761 42.5099C319.33 42.1359 320.018 41.9489 320.828 41.9489C321.586 41.9489 322.246 42.1146 322.81 42.446C323.373 42.7775 323.811 43.2509 324.124 43.8665C324.436 44.4773 324.592 45.2064 324.592 46.054V53H321.567V46.5938C321.571 45.9261 321.401 45.4053 321.055 45.0312C320.71 44.6525 320.234 44.4631 319.628 44.4631C319.221 44.4631 318.861 44.5507 318.548 44.7259C318.241 44.901 317.999 45.1567 317.824 45.4929C317.653 45.8243 317.566 46.2244 317.561 46.6932ZM331.892 57.3182C330.912 57.3182 330.071 57.1832 329.37 56.9134C328.674 56.6482 328.12 56.286 327.708 55.8267C327.297 55.3674 327.029 54.8513 326.906 54.2784L329.704 53.902C329.789 54.1198 329.924 54.3234 330.109 54.5128C330.294 54.7022 330.538 54.8537 330.841 54.9673C331.148 55.0857 331.522 55.1449 331.963 55.1449C332.621 55.1449 333.163 54.9839 333.589 54.6619C334.02 54.3447 334.235 53.812 334.235 53.0639V51.0682H334.108C333.975 51.3712 333.776 51.6577 333.511 51.9276C333.246 52.1974 332.905 52.4176 332.488 52.5881C332.072 52.7585 331.574 52.8438 330.997 52.8438C330.178 52.8438 329.432 52.6544 328.76 52.2756C328.092 51.892 327.559 51.3073 327.162 50.5213C326.769 49.7306 326.572 48.7315 326.572 47.5241C326.572 46.2884 326.773 45.2562 327.176 44.4276C327.578 43.599 328.113 42.9787 328.781 42.5668C329.453 42.1548 330.19 41.9489 330.99 41.9489C331.6 41.9489 332.112 42.053 332.524 42.2614C332.936 42.465 333.267 42.7206 333.518 43.0284C333.774 43.3314 333.97 43.6297 334.108 43.9233H334.221V42.0909H337.225V53.1065C337.225 54.0346 336.998 54.8111 336.544 55.4361C336.089 56.0611 335.459 56.5298 334.654 56.8423C333.854 57.1596 332.933 57.3182 331.892 57.3182ZM331.956 50.571C332.443 50.571 332.855 50.4503 333.191 50.2088C333.532 49.9626 333.793 49.6122 333.973 49.1577C334.157 48.6984 334.25 48.1491 334.25 47.5099C334.25 46.8707 334.16 46.3168 333.98 45.848C333.8 45.3745 333.539 45.0076 333.199 44.7472C332.858 44.4867 332.443 44.3565 331.956 44.3565C331.458 44.3565 331.039 44.4915 330.699 44.7614C330.358 45.0265 330.1 45.3958 329.924 45.8693C329.749 46.3428 329.662 46.8897 329.662 47.5099C329.662 48.1397 329.749 48.6842 329.924 49.1435C330.104 49.598 330.362 49.9508 330.699 50.2017C331.039 50.4479 331.458 50.571 331.956 50.571ZM195.203 78.3551V72.0909H198.229V83H195.324V81.0185H195.21C194.964 81.6577 194.554 82.1714 193.982 82.5597C193.413 82.9479 192.72 83.142 191.901 83.142C191.171 83.142 190.53 82.9763 189.976 82.6449C189.422 82.3134 188.989 81.8423 188.676 81.2315C188.368 80.6207 188.212 79.8892 188.207 79.0369V72.0909H191.233V78.4972C191.238 79.1411 191.411 79.6501 191.751 80.0241C192.092 80.3982 192.549 80.5852 193.122 80.5852C193.487 80.5852 193.828 80.5024 194.145 80.3366C194.462 80.1662 194.718 79.9152 194.912 79.5838C195.111 79.2524 195.208 78.8428 195.203 78.3551ZM200.649 87.0909V72.0909H203.632V73.9233H203.767C203.899 73.6297 204.091 73.3314 204.342 73.0284C204.598 72.7206 204.929 72.465 205.336 72.2614C205.748 72.053 206.26 71.9489 206.87 71.9489C207.666 71.9489 208.4 72.1572 209.072 72.5739C209.744 72.9858 210.282 73.6084 210.684 74.4418C211.087 75.2704 211.288 76.3097 211.288 77.5597C211.288 78.7765 211.092 79.804 210.699 80.642C210.31 81.4754 209.78 82.1075 209.108 82.5384C208.44 82.9645 207.692 83.1776 206.863 83.1776C206.276 83.1776 205.777 83.0805 205.365 82.8864C204.958 82.6922 204.624 82.4484 204.363 82.1548C204.103 81.8565 203.904 81.5559 203.767 81.2528H203.674V87.0909H200.649ZM203.61 77.5455C203.61 78.1941 203.7 78.7599 203.88 79.2429C204.06 79.7259 204.321 80.1023 204.662 80.3722C205.002 80.6373 205.417 80.7699 205.904 80.7699C206.397 80.7699 206.814 80.6349 207.154 80.3651C207.495 80.0904 207.753 79.7116 207.929 79.2287C208.109 78.741 208.199 78.1799 208.199 77.5455C208.199 76.9157 208.111 76.3617 207.936 75.8835C207.761 75.4053 207.502 75.0312 207.162 74.7614C206.821 74.4915 206.402 74.3565 205.904 74.3565C205.412 74.3565 204.995 74.4867 204.654 74.7472C204.318 75.0076 204.06 75.3769 203.88 75.8551C203.7 76.3333 203.61 76.8968 203.61 77.5455ZM223.737 72.0909V74.3636H217.167V72.0909H223.737ZM218.658 69.4773H221.684V79.6477C221.684 79.9271 221.727 80.1449 221.812 80.3011C221.897 80.4527 222.015 80.5592 222.167 80.6207C222.323 80.6823 222.503 80.7131 222.707 80.7131C222.849 80.7131 222.991 80.7012 223.133 80.6776C223.275 80.6491 223.384 80.6278 223.46 80.6136L223.935 82.8651C223.784 82.9124 223.571 82.9669 223.296 83.0284C223.022 83.0947 222.688 83.1349 222.295 83.1491C221.566 83.1776 220.926 83.0805 220.377 82.858C219.833 82.6354 219.409 82.2898 219.106 81.821C218.803 81.3523 218.654 80.7604 218.658 80.0455V69.4773ZM228.967 76.6932V83H225.942V68.4545H228.882V74.0156H229.01C229.256 73.3717 229.654 72.8674 230.203 72.5028C230.752 72.1335 231.441 71.9489 232.27 71.9489C233.027 71.9489 233.688 72.1146 234.251 72.446C234.82 72.7727 235.26 73.2438 235.572 73.8594C235.89 74.4702 236.046 75.2017 236.041 76.054V83H233.016V76.5938C233.02 75.9214 232.85 75.3982 232.504 75.0241C232.163 74.6501 231.685 74.4631 231.07 74.4631C230.658 74.4631 230.293 74.5507 229.976 74.7259C229.663 74.901 229.417 75.1567 229.237 75.4929C229.062 75.8243 228.972 76.2244 228.967 76.6932ZM243.394 83.2131C242.272 83.2131 241.306 82.9858 240.496 82.5312C239.691 82.072 239.071 81.4233 238.635 80.5852C238.2 79.7424 237.982 78.7457 237.982 77.5952C237.982 76.473 238.2 75.4882 238.635 74.6406C239.071 73.7931 239.684 73.1326 240.475 72.6591C241.27 72.1856 242.203 71.9489 243.273 71.9489C243.993 71.9489 244.663 72.0649 245.283 72.2969C245.908 72.5241 246.453 72.8674 246.917 73.3267C247.385 73.786 247.75 74.3636 248.01 75.0597C248.271 75.7509 248.401 76.5606 248.401 77.4886V78.3196H239.189V76.4446H245.553C245.553 76.009 245.458 75.6231 245.269 75.2869C245.079 74.9508 244.817 74.688 244.48 74.4986C244.149 74.3045 243.763 74.2074 243.323 74.2074C242.864 74.2074 242.456 74.3139 242.101 74.527C241.751 74.7353 241.476 75.017 241.277 75.3722C241.078 75.7225 240.977 76.1132 240.972 76.544V78.3267C240.972 78.8665 241.071 79.3329 241.27 79.7259C241.474 80.1188 241.76 80.4219 242.13 80.6349C242.499 80.848 242.937 80.9545 243.444 80.9545C243.78 80.9545 244.087 80.9072 244.367 80.8125C244.646 80.7178 244.885 80.5758 245.084 80.3864C245.283 80.197 245.435 79.965 245.539 79.6903L248.337 79.875C248.195 80.5473 247.904 81.1345 247.463 81.6364C247.028 82.1335 246.464 82.5218 245.773 82.8011C245.087 83.0758 244.293 83.2131 243.394 83.2131ZM255.061 83V68.4545H258.087V73.9233H258.179C258.312 73.6297 258.503 73.3314 258.754 73.0284C259.01 72.7206 259.341 72.465 259.749 72.2614C260.161 72.053 260.672 71.9489 261.283 71.9489C262.078 71.9489 262.812 72.1572 263.484 72.5739C264.157 72.9858 264.694 73.6084 265.097 74.4418C265.499 75.2704 265.7 76.3097 265.7 77.5597C265.7 78.7765 265.504 79.804 265.111 80.642C264.723 81.4754 264.192 82.1075 263.52 82.5384C262.852 82.9645 262.104 83.1776 261.276 83.1776C260.688 83.1776 260.189 83.0805 259.777 82.8864C259.37 82.6922 259.036 82.4484 258.776 82.1548C258.515 81.8565 258.316 81.5559 258.179 81.2528H258.044V83H255.061ZM258.023 77.5455C258.023 78.1941 258.113 78.7599 258.293 79.2429C258.473 79.7259 258.733 80.1023 259.074 80.3722C259.415 80.6373 259.829 80.7699 260.317 80.7699C260.809 80.7699 261.226 80.6349 261.567 80.3651C261.908 80.0904 262.166 79.7116 262.341 79.2287C262.521 78.741 262.611 78.1799 262.611 77.5455C262.611 76.9157 262.523 76.3617 262.348 75.8835C262.173 75.4053 261.915 75.0312 261.574 74.7614C261.233 74.4915 260.814 74.3565 260.317 74.3565C259.824 74.3565 259.408 74.4867 259.067 74.7472C258.731 75.0076 258.473 75.3769 258.293 75.8551C258.113 76.3333 258.023 76.8968 258.023 77.5455ZM270.745 68.4545V83H267.719V68.4545H270.745ZM278.097 83.2131C276.994 83.2131 276.04 82.9787 275.235 82.5099C274.435 82.0365 273.817 81.3783 273.381 80.5355C272.946 79.688 272.728 78.7055 272.728 77.5881C272.728 76.4612 272.946 75.4763 273.381 74.6335C273.817 73.786 274.435 73.1278 275.235 72.6591C276.04 72.1856 276.994 71.9489 278.097 71.9489C279.201 71.9489 280.152 72.1856 280.952 72.6591C281.757 73.1278 282.378 73.786 282.813 74.6335C283.249 75.4763 283.467 76.4612 283.467 77.5881C283.467 78.7055 283.249 79.688 282.813 80.5355C282.378 81.3783 281.757 82.0365 280.952 82.5099C280.152 82.9787 279.201 83.2131 278.097 83.2131ZM278.112 80.8693C278.613 80.8693 279.032 80.7273 279.369 80.4432C279.705 80.1544 279.958 79.7614 280.129 79.2642C280.304 78.767 280.391 78.2012 280.391 77.5668C280.391 76.9323 280.304 76.3665 280.129 75.8693C279.958 75.3722 279.705 74.9792 279.369 74.6903C279.032 74.4015 278.613 74.2571 278.112 74.2571C277.605 74.2571 277.179 74.4015 276.833 74.6903C276.492 74.9792 276.234 75.3722 276.059 75.8693C275.888 76.3665 275.803 76.9323 275.803 77.5668C275.803 78.2012 275.888 78.767 276.059 79.2642C276.234 79.7614 276.492 80.1544 276.833 80.4432C277.179 80.7273 277.605 80.8693 278.112 80.8693ZM290.363 83.2131C289.246 83.2131 288.284 82.9763 287.479 82.5028C286.679 82.0246 286.064 81.3617 285.633 80.5142C285.207 79.6667 284.994 78.6913 284.994 77.5881C284.994 76.4706 285.209 75.4905 285.64 74.6477C286.076 73.8002 286.693 73.1397 287.494 72.6662C288.294 72.188 289.246 71.9489 290.349 71.9489C291.3 71.9489 292.134 72.1217 292.849 72.4673C293.564 72.813 294.129 73.2983 294.546 73.9233C294.963 74.5483 295.192 75.2822 295.235 76.125H292.38C292.299 75.5805 292.086 75.1425 291.741 74.8111C291.4 74.4749 290.952 74.3068 290.398 74.3068C289.93 74.3068 289.52 74.4347 289.17 74.6903C288.824 74.9413 288.554 75.3082 288.36 75.7912C288.166 76.2741 288.069 76.8589 288.069 77.5455C288.069 78.2415 288.164 78.8333 288.353 79.321C288.547 79.8087 288.819 80.1804 289.17 80.4361C289.52 80.6918 289.93 80.8196 290.398 80.8196C290.744 80.8196 291.054 80.7486 291.329 80.6065C291.608 80.4645 291.838 80.2585 292.018 79.9886C292.202 79.714 292.323 79.3849 292.38 79.0014H295.235C295.188 79.8348 294.96 80.5687 294.553 81.2031C294.151 81.8329 293.594 82.3253 292.884 82.6804C292.174 83.0355 291.334 83.2131 290.363 83.2131ZM299.914 79.8608L299.921 76.2315H300.361L303.855 72.0909H307.328L302.634 77.5739H301.917L299.914 79.8608ZM297.172 83V68.4545H300.198V83H297.172ZM303.99 83L300.78 78.2486L302.797 76.1108L307.534 83H303.99ZM317.89 75.2017L315.12 75.3722C315.072 75.1354 314.971 74.9223 314.814 74.733C314.658 74.5388 314.452 74.3849 314.196 74.2713C313.945 74.1529 313.645 74.0938 313.294 74.0938C312.826 74.0938 312.43 74.1932 312.108 74.392C311.786 74.5862 311.625 74.8466 311.625 75.1733C311.625 75.4337 311.73 75.6539 311.938 75.8338C312.146 76.0137 312.504 76.1581 313.01 76.267L314.985 76.6648C316.045 76.8826 316.836 77.233 317.357 77.7159C317.878 78.1989 318.138 78.8333 318.138 79.6193C318.138 80.3343 317.927 80.9616 317.506 81.5014C317.089 82.0412 316.516 82.4626 315.787 82.7656C315.063 83.0639 314.227 83.2131 313.28 83.2131C311.836 83.2131 310.685 82.9124 309.828 82.3111C308.976 81.705 308.477 80.8812 308.33 79.8395L311.306 79.6832C311.396 80.1236 311.614 80.4598 311.959 80.6918C312.305 80.919 312.748 81.0327 313.287 81.0327C313.818 81.0327 314.244 80.9309 314.566 80.7273C314.892 80.5189 315.058 80.2514 315.063 79.9247C315.058 79.6501 314.942 79.4252 314.715 79.25C314.488 79.0701 314.137 78.9328 313.664 78.8381L311.775 78.4616C310.709 78.2486 309.916 77.8793 309.395 77.3537C308.879 76.8281 308.621 76.1581 308.621 75.3438C308.621 74.643 308.81 74.0393 309.189 73.5327C309.573 73.026 310.11 72.6354 310.801 72.3608C311.498 72.0862 312.312 71.9489 313.245 71.9489C314.623 71.9489 315.707 72.2401 316.498 72.8224C317.293 73.4048 317.757 74.1979 317.89 75.2017Z" fill="#BFC8FF" fill-opacity="0.36"/>
</svg>
